<?xml version="1.0" encoding="UTF-8"?>
<svg width="1800" height="1000" viewBox="0 0 1800 1000" fill="none" xmlns="http://www.w3.org/2000/svg">
  <title>Woong Monitor Stack WPF Dashboard Elements</title>
  <desc>Figma-importable SVG board describing the WPF dashboard UI elements, implementation guidance, and numbered regions from the reference image.</desc>
  <defs>
    <filter id="softShadow" x="-12%" y="-12%" width="124%" height="124%">
      <feDropShadow dx="0" dy="8" stdDeviation="16" flood-color="#0F172A" flood-opacity="0.12"/>
    </filter>
    <marker id="arrowDot" markerWidth="8" markerHeight="8" refX="4" refY="4">
      <circle cx="4" cy="4" r="3" fill="#1473E6"/>
    </marker>
    <style>
      .ui { font-family: Inter, Segoe UI, Arial, sans-serif; }
      .title { font-size: 28px; font-weight: 800; fill: #0F172A; }
      .subtitle { font-size: 14px; font-weight: 500; fill: #5A6472; }
      .section { font-size: 15px; font-weight: 800; fill: #0F172A; }
      .body { font-size: 13px; font-weight: 500; fill: #1F2937; }
      .small { font-size: 11px; font-weight: 500; fill: #475569; }
      .tiny { font-size: 10px; font-weight: 500; fill: #64748B; }
      .value { font-size: 23px; font-weight: 800; fill: #0F172A; }
      .button { font-size: 13px; font-weight: 700; }
      .noteTitle { font-size: 17px; font-weight: 800; }
      .noteBody { font-size: 12px; font-weight: 500; fill: #111827; }
      .calloutText { font-size: 14px; font-weight: 800; fill: #FFFFFF; }
    </style>
  </defs>

  <rect width="1800" height="1000" fill="#F6F8FB"/>

  <!-- Main WPF app window -->
  <g id="wpf-app-window" class="ui" transform="translate(28 32)" filter="url(#softShadow)">
    <rect width="1304" height="914" rx="10" fill="#FFFFFF" stroke="#B9C1CB"/>
    <rect width="1304" height="38" rx="10" fill="#FAFBFC" stroke="#E5E7EB"/>
    <rect x="18" y="13" width="13" height="13" fill="#E9F7EF" stroke="#0F766E"/>
    <rect x="23" y="16" width="4" height="7" fill="#16A34A"/>
    <text x="42" y="25" class="ui body">Woong Monitor Stack</text>
    <text x="1176" y="25" class="ui body">−</text>
    <rect x="1228" y="13" width="11" height="11" rx="1" stroke="#1F2937"/>
    <text x="1274" y="25" class="ui body">×</text>

    <!-- 1. Header + status -->
    <g id="element-1-header-status" transform="translate(36 64)">
      <text x="0" y="0" dominant-baseline="hanging" class="ui title">Woong Monitor Stack</text>
      <text x="0" y="39" class="ui subtitle">Windows Focus Tracker</text>
      <g id="status-badges" transform="translate(578 0)">
        <rect width="178" height="40" rx="12" fill="#EEF8F1" stroke="#BFE8CC"/>
        <circle cx="25" cy="20" r="7" fill="#16A34A"/>
        <text x="44" y="25" class="ui button" fill="#087A34">Tracking Running</text>
        <rect x="194" width="118" height="40" rx="12" fill="#FFF6E8" stroke="#FFDDA8"/>
        <circle cx="219" cy="20" r="8" fill="#F59E0B"/>
        <path d="M216 18 L219 22 L224 15" stroke="#FFFFFF" stroke-width="2" fill="none" stroke-linecap="round"/>
        <text x="238" y="25" class="ui button" fill="#A45B00">Sync Off</text>
        <rect x="328" width="146" height="40" rx="12" fill="#EEF5FF" stroke="#BFD8FF"/>
        <circle cx="353" cy="20" r="8" fill="#0B63CE"/>
        <path d="M349 18 L353 22 L359 15" stroke="#FFFFFF" stroke-width="2" fill="none" stroke-linecap="round"/>
        <text x="372" y="25" class="ui button" fill="#0B63CE">Privacy Safe</text>
      </g>
    </g>

    <!-- 2. Control bar -->
    <g id="element-2-control-bar" transform="translate(28 122)">
      <rect width="1248" height="66" rx="9" fill="#FFFFFF" stroke="#DCE1E8"/>
      <g id="tracking-actions" transform="translate(12 16)">
        <rect width="154" height="40" rx="6" fill="#0F6BDE"/>
        <path d="M20 12 L20 28 L32 20 Z" fill="#FFFFFF"/>
        <text x="44" y="25" class="ui button" fill="#FFFFFF">Start Tracking</text>
        <rect x="172" width="158" height="40" rx="6" fill="#FFFFFF" stroke="#EA3323"/>
        <rect x="194" y="15" width="12" height="12" rx="2" fill="#EA3323"/>
        <text x="218" y="25" class="ui button" fill="#EA3323">Stop Tracking</text>
        <rect x="348" width="110" height="40" rx="6" fill="#FFFFFF" stroke="#DCE1E8"/>
        <path d="M372 14 A9 9 0 1 0 381 23" stroke="#374151" stroke-width="1.6" fill="none"/>
        <path d="M380 11 L380 18 L386 15" fill="#374151"/>
        <text x="394" y="25" class="ui button" fill="#374151">Refresh</text>
        <rect x="472" width="126" height="40" rx="6" fill="#FFFFFF" stroke="#DCE1E8"/>
        <path d="M495 12 V28 M489 18 L495 12 L501 18 M514 28 V12 M508 22 L514 28 L520 22" stroke="#374151" stroke-width="1.6" fill="none" stroke-linecap="round"/>
        <text x="530" y="25" class="ui button" fill="#374151">Sync Now</text>
      </g>
      <g id="period-filter" transform="translate(632 16)">
        <rect width="74" height="40" rx="5" fill="#0F6BDE"/>
        <text x="37" y="25" text-anchor="middle" class="ui button" fill="#FFFFFF">Today</text>
        <rect x="74" width="72" height="40" fill="#FFFFFF" stroke="#DCE1E8"/>
        <text x="110" y="25" text-anchor="middle" class="ui body">1h</text>
        <rect x="146" width="72" height="40" fill="#FFFFFF" stroke="#DCE1E8"/>
        <text x="182" y="25" text-anchor="middle" class="ui body">6h</text>
        <rect x="218" width="72" height="40" fill="#FFFFFF" stroke="#DCE1E8"/>
        <text x="254" y="25" text-anchor="middle" class="ui body">24h</text>
        <rect x="290" width="110" height="40" rx="5" fill="#FFFFFF" stroke="#DCE1E8"/>
        <text x="335" y="25" text-anchor="middle" class="ui body">Custom</text>
        <rect x="371" y="12" width="14" height="14" rx="2" stroke="#374151"/>
        <path d="M374 10 V15 M382 10 V15 M371 18 H385" stroke="#374151" stroke-width="1.2"/>
      </g>
    </g>

    <!-- 3. Current focus panel -->
    <g id="element-3-current-focus" transform="translate(28 200)">
      <rect width="1248" height="184" rx="9" fill="#FFFFFF" stroke="#DCE1E8"/>
      <text x="16" y="29" class="ui section">Current Focus</text>
      <line x1="420" y1="56" x2="420" y2="164" stroke="#DCE1E8"/>
      <line x1="826" y1="56" x2="826" y2="164" stroke="#DCE1E8"/>
      <g transform="translate(28 62)">
        <circle cx="10" cy="9" r="7" stroke="#475569" stroke-width="1.4"/>
        <path d="M10 4 V9 L14 12" stroke="#475569" stroke-width="1.4" fill="none"/>
        <text x="34" y="13" class="ui small">Tracking 상태</text>
        <rect x="142" y="-4" width="70" height="25" rx="7" fill="#EEF8F1" stroke="#BFE8CC"/>
        <text x="177" y="12" text-anchor="middle" class="ui small" fill="#087A34">Running</text>
        <rect x="0" y="37" width="18" height="14" rx="2" stroke="#475569"/>
        <path d="M4 34 V39 M14 34 V39" stroke="#475569"/>
        <text x="34" y="51" class="ui small">현재 앱</text>
        <circle cx="151" cy="45" r="10" fill="#16A34A"/>
        <circle cx="157" cy="39" r="8" fill="#2563EB"/>
        <circle cx="151" cy="45" r="4" fill="#FFFFFF"/>
        <text x="174" y="51" class="ui body">Chrome</text>
        <rect x="0" y="72" width="17" height="14" rx="2" stroke="#475569"/>
        <text x="34" y="86" class="ui small">프로세스</text>
        <text x="142" y="86" class="ui body">chrome.exe</text>
        <rect x="0" y="107" width="17" height="14" rx="2" stroke="#475569"/>
        <text x="34" y="121" class="ui small">창 제목</text>
        <text x="142" y="121" class="ui body">Hidden by privacy setting</text>
      </g>
      <g transform="translate(456 62)">
        <circle cx="10" cy="9" r="7" stroke="#475569" stroke-width="1.4"/>
        <path d="M3 9 H17 M10 2 C13 5 13 13 10 16 M10 2 C7 5 7 13 10 16" stroke="#475569" stroke-width="1.1" fill="none"/>
        <text x="34" y="13" class="ui small">현재 도메인</text>
        <text x="150" y="13" class="ui body" fill="#0F6BDE">github.com</text>
        <circle cx="10" cy="45" r="7" stroke="#475569" stroke-width="1.4"/>
        <path d="M10 40 V45 L14 48" stroke="#475569" stroke-width="1.4" fill="none"/>
        <text x="34" y="49" class="ui small">세션 진행 시간</text>
        <text x="150" y="49" class="ui body">00:12:31</text>
        <rect x="3" y="72" width="14" height="16" rx="2" stroke="#475569"/>
        <path d="M6 77 H14 M6 82 H14" stroke="#475569"/>
        <text x="34" y="85" class="ui small">마지막 저장 세션</text>
        <text x="150" y="85" class="ui body">VS Code</text>
        <text x="218" y="85" class="ui tiny">09:01 - 09:25 (24m)</text>
      </g>
      <g transform="translate(866 62)">
        <circle cx="10" cy="9" r="7" stroke="#475569" stroke-width="1.4"/>
        <path d="M10 4 V9 L14 12" stroke="#475569" stroke-width="1.4" fill="none"/>
        <text x="34" y="13" class="ui small">마지막 폴링</text>
        <text x="184" y="13" class="ui body">09:25:10</text>
        <rect x="3" y="38" width="14" height="14" rx="2" stroke="#475569"/>
        <path d="M6 42 H14 M6 48 H14" stroke="#475569"/>
        <text x="34" y="51" class="ui small">마지막 DB 저장</text>
        <text x="184" y="51" class="ui body">09:25:00</text>
        <path d="M3 84 C6 75 16 75 20 84 C24 84 26 91 19 93 H6 C0 92 0 86 3 84Z" stroke="#475569" fill="none"/>
        <text x="34" y="88" class="ui small">동기화 상태</text>
        <text x="184" y="88" class="ui body">Local only</text>
      </g>
    </g>

    <!-- 4. Summary cards -->
    <g id="element-4-summary-cards" transform="translate(28 397)">
      <g id="summary-active-focus">
        <rect width="304" height="96" rx="9" fill="#FFFFFF" stroke="#DCE1E8"/>
        <circle cx="44" cy="48" r="27" fill="#EAF3FF"/>
        <circle cx="44" cy="48" r="18" fill="#0F6BDE"/>
        <circle cx="44" cy="48" r="8" stroke="#FFFFFF" stroke-width="3"/>
        <path d="M44 28 V36 M44 60 V68 M24 48 H32 M56 48 H64" stroke="#0F6BDE" stroke-width="2"/>
        <text x="84" y="33" class="ui section">Active Focus</text>
        <text x="84" y="61" class="ui value">3h 12m</text>
        <text x="84" y="84" class="ui small">오늘 총 집중 시간</text>
      </g>
      <g id="summary-foreground" transform="translate(318 0)">
        <rect width="304" height="96" rx="9" fill="#FFFFFF" stroke="#DCE1E8"/>
        <circle cx="44" cy="48" r="27" fill="#ECFDF5"/>
        <circle cx="44" cy="48" r="18" fill="#16A34A"/>
        <circle cx="44" cy="42" r="6" stroke="#FFFFFF" stroke-width="2"/>
        <path d="M31 63 C34 53 54 53 57 63" stroke="#FFFFFF" stroke-width="2" fill="none" stroke-linecap="round"/>
        <text x="84" y="33" class="ui section">Foreground</text>
        <text x="84" y="61" class="ui value">4h 05m</text>
        <text x="84" y="84" class="ui small">오늘 포그라운드 시간</text>
      </g>
      <g id="summary-idle" transform="translate(636 0)">
        <rect width="304" height="96" rx="9" fill="#FFFFFF" stroke="#DCE1E8"/>
        <circle cx="44" cy="48" r="27" fill="#FFF7ED"/>
        <circle cx="44" cy="48" r="18" fill="#F59E0B"/>
        <rect x="34" y="38" width="17" height="20" rx="2" stroke="#FFFFFF" stroke-width="2"/>
        <path d="M51 43 H58 V54 H51" stroke="#FFFFFF" stroke-width="2" fill="none"/>
        <text x="84" y="33" class="ui section">Idle</text>
        <text x="84" y="61" class="ui value">53m</text>
        <text x="84" y="84" class="ui small">오늘 유휴 시간</text>
      </g>
      <g id="summary-web-focus" transform="translate(954 0)">
        <rect width="294" height="96" rx="9" fill="#FFFFFF" stroke="#DCE1E8"/>
        <circle cx="44" cy="48" r="27" fill="#F5F3FF"/>
        <circle cx="44" cy="48" r="18" fill="#6D5BD0"/>
        <circle cx="44" cy="48" r="11" stroke="#FFFFFF" stroke-width="2"/>
        <path d="M33 48 H55 M44 37 C50 43 50 53 44 59 M44 37 C38 43 38 53 44 59" stroke="#FFFFFF" stroke-width="1.6" fill="none"/>
        <text x="84" y="33" class="ui section">Web Focus</text>
        <text x="84" y="61" class="ui value">1h 42m</text>
        <text x="84" y="84" class="ui small">오늘 웹 집중 시간</text>
      </g>
    </g>

    <!-- 5. Charts -->
    <g id="element-5-charts" transform="translate(28 507)">
      <g id="chart-hourly">
        <rect width="410" height="198" rx="9" fill="#FFFFFF" stroke="#DCE1E8"/>
        <text x="18" y="28" class="ui section">시간대별 Active Focus (오늘)</text>
        <g transform="translate(22 52)">
          <line x1="38" y1="118" x2="370" y2="118" stroke="#E5E7EB"/>
          <line x1="38" y1="86" x2="370" y2="86" stroke="#EEF2F7"/>
          <line x1="38" y1="54" x2="370" y2="54" stroke="#EEF2F7"/>
          <line x1="38" y1="22" x2="370" y2="22" stroke="#EEF2F7"/>
          <text x="0" y="121" class="ui tiny">0m</text>
          <text x="0" y="89" class="ui tiny">30m</text>
          <text x="0" y="57" class="ui tiny">60m</text>
          <text x="0" y="25" class="ui tiny">120m</text>
          <g fill="#2F80ED">
            <rect x="52" y="100" width="15" height="18" rx="2"/>
            <rect x="84" y="86" width="15" height="32" rx="2"/>
            <rect x="116" y="65" width="15" height="53" rx="2"/>
            <rect x="148" y="34" width="15" height="84" rx="2"/>
            <rect x="180" y="55" width="15" height="63" rx="2"/>
            <rect x="212" y="34" width="15" height="84" rx="2"/>
            <rect x="244" y="44" width="15" height="74" rx="2"/>
            <rect x="276" y="72" width="15" height="46" rx="2"/>
            <rect x="308" y="98" width="15" height="20" rx="2"/>
            <rect x="340" y="111" width="15" height="7" rx="2"/>
          </g>
          <g class="ui tiny">
            <text x="51" y="143">09</text><text x="83" y="143">10</text><text x="115" y="143">11</text><text x="147" y="143">12</text><text x="179" y="143">13</text><text x="211" y="143">14</text><text x="243" y="143">16</text><text x="275" y="143">17</text><text x="307" y="143">18</text><text x="339" y="143">19</text>
          </g>
        </g>
      </g>
      <g id="chart-app-focus" transform="translate(424 0)">
        <rect width="410" height="198" rx="9" fill="#FFFFFF" stroke="#DCE1E8"/>
        <text x="18" y="28" class="ui section">앱별 집중 시간 (오늘)</text>
        <g transform="translate(24 58)">
          <text x="0" y="16" class="ui body">Chrome</text>
          <text x="0" y="57" class="ui body">VS Code</text>
          <text x="0" y="98" class="ui body">Woong App</text>
          <rect x="96" y="0" width="210" height="16" rx="4" fill="#2F80ED"/>
          <rect x="96" y="41" width="116" height="16" rx="4" fill="#2F80ED"/>
          <rect x="96" y="82" width="62" height="16" rx="4" fill="#2F80ED"/>
          <text x="320" y="14" class="ui body">2h 18m</text>
          <text x="226" y="55" class="ui body">1h 20m</text>
          <text x="172" y="96" class="ui body">45m</text>
          <text x="96" y="132" class="ui small">0</text>
          <text x="174" y="132" class="ui small">1h</text>
          <text x="258" y="132" class="ui small">2h</text>
          <text x="344" y="132" class="ui small">3h</text>
        </g>
      </g>
      <g id="chart-domain-focus" transform="translate(848 0)">
        <rect width="400" height="198" rx="9" fill="#FFFFFF" stroke="#DCE1E8"/>
        <text x="18" y="28" class="ui section">도메인별 집중 시간 (오늘)</text>
        <g transform="translate(24 58)">
          <text x="0" y="16" class="ui body">github.com</text>
          <text x="0" y="57" class="ui body">chatgpt.com</text>
          <text x="0" y="98" class="ui body">docs.microsoft.com</text>
          <rect x="138" y="0" width="174" height="16" rx="4" fill="#2F80ED"/>
          <rect x="138" y="41" width="98" height="16" rx="4" fill="#2F80ED"/>
          <rect x="138" y="82" width="50" height="16" rx="4" fill="#2F80ED"/>
          <text x="326" y="14" class="ui body">52m</text>
          <text x="250" y="55" class="ui body">28m</text>
          <text x="202" y="96" class="ui body">12m</text>
          <text x="138" y="132" class="ui small">0</text>
          <text x="212" y="132" class="ui small">30m</text>
          <text x="286" y="132" class="ui small">60m</text>
        </g>
      </g>
    </g>

    <!-- 6. Tabs and data grid -->
    <g id="element-6-tabs-grid" transform="translate(28 719)">
      <rect width="1248" height="166" rx="9" fill="#FFFFFF" stroke="#DCE1E8"/>
      <g id="tabs" transform="translate(14 9)">
        <text x="0" y="18" class="ui button" fill="#0F6BDE">App Sessions</text>
        <line x1="0" y1="30" x2="108" y2="30" stroke="#0F6BDE" stroke-width="3"/>
        <text x="128" y="18" class="ui body">Web Sessions</text>
        <text x="260" y="18" class="ui body">Live Event Log</text>
        <text x="390" y="18" class="ui body">Settings</text>
      </g>
      <g id="data-grid" transform="translate(14 46)">
        <rect width="1220" height="92" fill="#FFFFFF" stroke="#DCE1E8"/>
        <rect width="1220" height="36" fill="#F8FAFC" stroke="#DCE1E8"/>
        <g class="ui body" font-weight="700">
          <text x="18" y="23">App</text><text x="216" y="23">Process</text><text x="540" y="23">Start</text><text x="650" y="23">End</text><text x="766" y="23">Duration</text><text x="886" y="23">State</text><text x="1010" y="23">Window</text>
        </g>
        <line x1="198" y1="0" x2="198" y2="92" stroke="#DCE1E8"/>
        <line x1="510" y1="0" x2="510" y2="92" stroke="#DCE1E8"/>
        <line x1="620" y1="0" x2="620" y2="92" stroke="#DCE1E8"/>
        <line x1="734" y1="0" x2="734" y2="92" stroke="#DCE1E8"/>
        <line x1="858" y1="0" x2="858" y2="92" stroke="#DCE1E8"/>
        <line x1="980" y1="0" x2="980" y2="92" stroke="#DCE1E8"/>
        <line x1="0" y1="64" x2="1220" y2="64" stroke="#DCE1E8"/>
        <circle cx="24" cy="52" r="8" fill="#16A34A"/>
        <circle cx="29" cy="47" r="6" fill="#2563EB"/>
        <circle cx="24" cy="52" r="3" fill="#FFFFFF"/>
        <text x="46" y="56" class="ui body">Chrome</text>
        <text x="216" y="56" class="ui body">chrome.exe</text>
        <text x="540" y="56" class="ui body">09:10:15</text>
        <text x="650" y="56" class="ui body">09:22:46</text>
        <text x="766" y="56" class="ui body">12m 31s</text>
        <text x="886" y="56" class="ui body">Closed</text>
        <text x="1010" y="56" class="ui body">Hidden by privacy setting</text>
        <path d="M17 77 H31 L24 89 Z" fill="#0EA5E9"/>
        <text x="46" y="88" class="ui body">Visual Studio Code</text>
        <text x="216" y="88" class="ui body">Code.exe</text>
        <text x="540" y="88" class="ui body">09:10:00</text>
        <text x="650" y="88" class="ui body">09:10:15</text>
        <text x="766" y="88" class="ui body">9m 15s</text>
        <text x="886" y="88" class="ui body">Closed</text>
        <text x="1010" y="88" class="ui body">Hidden by privacy setting</text>
      </g>
      <g id="pager" transform="translate(14 144)">
        <text x="0" y="0" class="ui small">Total 128 sessions</text>
        <text x="466" y="0" class="ui body">|&lt;</text>
        <text x="506" y="0" class="ui body">&lt;</text>
        <rect x="542" y="-17" width="30" height="30" rx="5" fill="#EAF3FF"/>
        <text x="557" y="4" text-anchor="middle" class="ui body" fill="#0F6BDE">1</text>
        <text x="592" y="0" class="ui body">2</text>
        <text x="628" y="0" class="ui body">3</text>
        <text x="664" y="0" class="ui body">4</text>
        <text x="700" y="0" class="ui body">5</text>
        <text x="740" y="0" class="ui body">&gt;</text>
        <text x="780" y="0" class="ui body">&gt;|</text>
        <text x="1060" y="0" class="ui small">Rows per page:</text>
        <rect x="1160" y="-22" width="54" height="34" rx="5" fill="#FFFFFF" stroke="#DCE1E8"/>
        <text x="1187" y="0" text-anchor="middle" class="ui body">10</text>
      </g>
    </g>
  </g>

  <!-- Right implementation guidance panel -->
  <g id="instruction-panel" class="ui" transform="translate(1360 32)" filter="url(#softShadow)">
    <rect width="410" height="914" rx="10" fill="#FFFFFF" stroke="#DCE1E8"/>
    <text x="24" y="36" class="ui" font-size="22" font-weight="800" fill="#0F6BDE">UI Goal + Codex 지시 요약</text>

    <g id="note-a-goal" transform="translate(16 58)">
      <rect width="378" height="116" rx="8" fill="#FFFFFF" stroke="#CBD5E1"/>
      <circle cx="24" cy="22" r="15" fill="#0F6BDE"/>
      <text x="24" y="27" text-anchor="middle" class="ui calloutText">A</text>
      <text x="48" y="27" class="ui noteTitle" fill="#0F6BDE">핵심 목표</text>
      <text x="28" y="56" class="ui noteBody">• 오늘 어떤 앱/도메인에 얼마나 집중했는지 한눈에 이해</text>
      <text x="28" y="80" class="ui noteBody">• 현재 추적 상태와 마지막 DB 저장 상태를 즉시 확인</text>
      <text x="28" y="104" class="ui noteBody">• SQLite 집계 결과를 Dashboard에서 표시</text>
    </g>

    <g id="note-b-structure" transform="translate(16 188)">
      <rect width="378" height="176" rx="8" fill="#FFFFFF" stroke="#CBD5E1"/>
      <circle cx="24" cy="22" r="15" fill="#16A34A"/>
      <text x="24" y="27" text-anchor="middle" class="ui calloutText">B</text>
      <text x="48" y="27" class="ui noteTitle" fill="#16A34A">필수 UI 구성</text>
      <text x="28" y="56" class="ui noteBody">• Header / 상태 배지</text>
      <text x="28" y="80" class="ui noteBody">• Control Bar</text>
      <text x="28" y="104" class="ui noteBody">• Current Focus Panel</text>
      <text x="28" y="128" class="ui noteBody">• Summary Cards</text>
      <text x="28" y="152" class="ui noteBody">• Charts</text>
      <text x="28" y="176" class="ui noteBody">• Sessions / Web Sessions / Live Events / Settings Tabs</text>
    </g>

    <g id="note-c-wpf" transform="translate(16 380)">
      <rect width="378" height="154" rx="8" fill="#FFFFFF" stroke="#CBD5E1"/>
      <circle cx="24" cy="22" r="15" fill="#F59E0B"/>
      <text x="24" y="27" text-anchor="middle" class="ui calloutText">C</text>
      <text x="48" y="27" class="ui noteTitle" fill="#F59E0B">WPF 구현 지침</text>
      <text x="28" y="56" class="ui noteBody">• MVVM 유지</text>
      <text x="28" y="80" class="ui noteBody">• Grid, DockPanel, ScrollViewer, WrapPanel 사용</text>
      <text x="28" y="104" class="ui noteBody">• 고정 Width/Height 최소화, MinWidth/MinHeight 사용</text>
      <text x="28" y="128" class="ui noteBody">• 1920 / 1366 / 1024 폭에서 읽기 가능해야 함</text>
      <text x="28" y="152" class="ui noteBody">• DispatcherTimer 또는 testable ticker로 실시간 갱신</text>
    </g>

    <g id="note-d-rules" transform="translate(16 550)">
      <rect width="378" height="122" rx="8" fill="#FFFFFF" stroke="#CBD5E1"/>
      <circle cx="24" cy="22" r="15" fill="#6D5BD0"/>
      <text x="24" y="27" text-anchor="middle" class="ui calloutText">D</text>
      <text x="48" y="27" class="ui noteTitle" fill="#6D5BD0">제품 동작 규칙</text>
      <text x="28" y="56" class="ui noteBody">• 앱/창 전환 시 FocusSession 종료 후 새 세션 시작</text>
      <text x="28" y="80" class="ui noteBody">• Chrome 탭/도메인 변경 시 WebSession 분리</text>
      <text x="28" y="104" class="ui noteBody">• Dashboard는 SQLite 집계 결과를 표시</text>
    </g>

    <g id="note-e-acceptance" transform="translate(16 688)">
      <rect width="378" height="120" rx="8" fill="#FFFFFF" stroke="#CBD5E1"/>
      <circle cx="24" cy="22" r="15" fill="#EF4444"/>
      <text x="24" y="27" text-anchor="middle" class="ui calloutText">E</text>
      <text x="48" y="27" class="ui noteTitle" fill="#EF4444">테스트 / Acceptance</text>
      <text x="28" y="56" class="ui noteBody">• Start / Stop / Refresh / Sync Now 동작 검증</text>
      <text x="28" y="80" class="ui noteBody">• App/Web session 저장 검증</text>
      <text x="28" y="104" class="ui noteBody">• 차트 라벨 및 표 가독성 검증</text>
    </g>

    <g id="region-legend" transform="translate(16 824)">
      <rect width="378" height="76" rx="8" fill="#F8FBFF" stroke="#0F6BDE"/>
      <text x="18" y="23" class="ui button" fill="#0F6BDE">화면 영역 번호 설명</text>
      <g class="ui tiny" fill="#0F172A">
        <text x="20" y="45">1 상태 배지    2 제어 바    3 Current Focus</text>
        <text x="20" y="64">4 요약 카드    5 차트 영역    6 탭 + 데이터 그리드</text>
      </g>
    </g>
  </g>

  <!-- Numbered callouts from app to legend -->
  <g id="numbered-callouts" class="ui">
    <g transform="translate(1090 77)">
      <circle r="13" fill="#1473E6"/>
      <text y="5" text-anchor="middle" class="calloutText ui">1</text>
      <line x1="26" y1="0" x2="260" y2="0" stroke="#1473E6" stroke-dasharray="3 4" marker-end="url(#arrowDot)"/>
    </g>
    <g transform="translate(1090 151)">
      <circle r="13" fill="#1473E6"/>
      <text y="5" text-anchor="middle" class="calloutText ui">2</text>
      <line x1="26" y1="0" x2="260" y2="0" stroke="#1473E6" stroke-dasharray="3 4" marker-end="url(#arrowDot)"/>
    </g>
    <g transform="translate(1250 289)">
      <circle r="13" fill="#1473E6"/>
      <text y="5" text-anchor="middle" class="calloutText ui">3</text>
      <line x1="26" y1="0" x2="100" y2="0" stroke="#1473E6" stroke-dasharray="3 4" marker-end="url(#arrowDot)"/>
    </g>
    <g transform="translate(1250 449)">
      <circle r="13" fill="#1473E6"/>
      <text y="5" text-anchor="middle" class="calloutText ui">4</text>
      <line x1="26" y1="0" x2="100" y2="0" stroke="#1473E6" stroke-dasharray="3 4" marker-end="url(#arrowDot)"/>
    </g>
    <g transform="translate(1250 622)">
      <circle r="13" fill="#1473E6"/>
      <text y="5" text-anchor="middle" class="calloutText ui">5</text>
      <line x1="26" y1="0" x2="100" y2="0" stroke="#1473E6" stroke-dasharray="3 4" marker-end="url(#arrowDot)"/>
    </g>
    <g transform="translate(520 745)">
      <circle r="13" fill="#1473E6"/>
      <text y="5" text-anchor="middle" class="calloutText ui">6</text>
    </g>
  </g>
</svg>
